<svg width="43" height="25" viewBox="0 0 43 25" fill="none" xmlns="http://www.w3.org/2000/svg">
<path fill-rule="evenodd" clip-rule="evenodd" d="M0 8.05243C0 7.4836 0.46113 7.02247 1.02996 7.02247H38.4831C39.052 7.02247 39.5131 7.48361 39.5131 8.05243V23.97C39.5131 24.5389 39.052 25 38.4831 25H1.02996C0.461126 25 0 24.5389 0 23.97V8.05243ZM1.31086 8.33333V23.6891H38.2022V8.33333H1.31086Z" fill="black"/>
<path fill-rule="evenodd" clip-rule="evenodd" d="M2.62172 10.8614C2.62172 10.2926 3.08285 9.83146 3.65169 9.83146H16.1985C16.7673 9.83146 17.2285 10.2926 17.2285 10.8614V21.3483C17.2285 21.9171 16.7673 22.3783 16.1985 22.3783H3.65169C3.08285 22.3783 2.62172 21.9172 2.62172 21.3483V10.8614ZM3.93258 11.1423V21.0674H15.9176V11.1423H3.93258Z" fill="black"/>
<path fill-rule="evenodd" clip-rule="evenodd" d="M20.2247 16.1049C20.2247 15.6395 20.602 15.2622 21.0674 15.2622H34.7378C35.2032 15.2622 35.5805 15.6395 35.5805 16.1049V21.5356C35.5805 22.001 35.2032 22.3783 34.7378 22.3783H21.0674C20.602 22.3783 20.2247 22.001 20.2247 21.5356V16.1049ZM21.5356 16.573V21.0674H34.2697V16.573H21.5356Z" fill="black"/>
<path fill-rule="evenodd" clip-rule="evenodd" d="M20.2247 10.7678C20.2247 10.3541 20.5601 10.0187 20.9738 10.0187H23.221C23.6347 10.0187 23.97 10.3541 23.97 10.7678V13.015C23.97 13.4287 23.6347 13.764 23.221 13.764H20.9738C20.5601 13.764 20.2247 13.4287 20.2247 13.015V10.7678ZM21.5356 11.3296V12.4532H22.6592V11.3296H21.5356Z" fill="black"/>
<path fill-rule="evenodd" clip-rule="evenodd" d="M31.8352 10.7678C31.8352 10.3541 32.1706 10.0187 32.5843 10.0187H34.8315C35.2452 10.0187 35.5805 10.3541 35.5805 10.7678V13.015C35.5805 13.4287 35.2452 13.764 34.8315 13.764H32.5843C32.1706 13.764 31.8352 13.4287 31.8352 13.015V10.7678ZM33.1461 11.3296V12.4532H34.2697V11.3296H33.1461Z" fill="black"/>
<path fill-rule="evenodd" clip-rule="evenodd" d="M26.03 10.7678C26.03 10.3541 26.3653 10.0187 26.779 10.0187H29.0262C29.4399 10.0187 29.7753 10.3541 29.7753 10.7678V13.015C29.7753 13.4287 29.4399 13.764 29.0262 13.764H26.779C26.3653 13.764 26.03 13.4287 26.03 13.015V10.7678ZM27.3408 11.3296V12.4532H28.4644V11.3296H27.3408Z" fill="black"/>
<path fill-rule="evenodd" clip-rule="evenodd" d="M38.1086 1.50651C37.8528 1.58391 37.6001 1.68429 37.3524 1.80766C36.6861 2.13962 36.0635 2.63481 35.528 3.27886C34.9922 3.92326 34.5573 4.7006 34.2575 5.57116C34.0967 6.03802 33.9772 6.52464 33.901 7.02247L38.1086 7.02247V1.50651ZM38.1086 0.150495C38.5396 0.0506326 38.9785 1.92767e-08 39.4195 0V8.33333L32.4906 8.33333C32.4906 7.89331 32.5196 7.45501 32.5769 7.02247C32.6621 6.37928 32.8099 5.74882 33.0181 5.14431C33.3663 4.13326 33.8766 3.2146 34.52 2.44078C35.1634 1.66696 35.9273 1.05313 36.7679 0.634337C37.2011 0.41852 37.6504 0.256678 38.1086 0.150495Z" fill="black"/>
<path fill-rule="evenodd" clip-rule="evenodd" d="M39.6067 1.31086V7.11611H40.7303V1.31086H39.6067ZM38.6704 1.21148e-06C38.4636 1.21148e-06 38.2959 0.167685 38.2959 0.374533V8.05244C38.2959 8.25928 38.4636 8.42697 38.6704 8.42697H41.6667C41.8735 8.42697 42.0412 8.25928 42.0412 8.05244V0.374533C42.0412 0.167685 41.8735 1.21148e-06 41.6667 1.21148e-06H38.6704Z" fill="black"/>
<path fill-rule="evenodd" clip-rule="evenodd" d="M9.26966 21.3483L9.26966 10.2996H10.5805L10.5805 21.3483H9.26966Z" fill="black"/>
<path fill-rule="evenodd" clip-rule="evenodd" d="M4.58802 13.3895C4.58802 13.131 4.79762 12.9213 5.05618 12.9213H7.86517C8.12373 12.9213 8.33333 13.131 8.33333 13.3895C8.33333 13.6481 8.12373 13.8577 7.86517 13.8577H5.05618C4.79762 13.8577 4.58802 13.6481 4.58802 13.3895Z" fill="black"/>
<path fill-rule="evenodd" clip-rule="evenodd" d="M4.58802 15.2622C4.58802 15.0036 4.79762 14.794 5.05618 14.794H7.86517C8.12373 14.794 8.33333 15.0036 8.33333 15.2622C8.33333 15.5207 8.12373 15.7303 7.86517 15.7303H5.05618C4.79762 15.7303 4.58802 15.5207 4.58802 15.2622Z" fill="black"/>
<path fill-rule="evenodd" clip-rule="evenodd" d="M4.58802 17.1348C4.58802 16.8763 4.79762 16.6667 5.05618 16.6667H7.86517C8.12373 16.6667 8.33333 16.8763 8.33333 17.1348C8.33333 17.3934 8.12373 17.603 7.86517 17.603H5.05618C4.79762 17.603 4.58802 17.3934 4.58802 17.1348Z" fill="black"/>
<path fill-rule="evenodd" clip-rule="evenodd" d="M4.58802 19.0075C4.58802 18.7489 4.79762 18.5393 5.05618 18.5393H7.86517C8.12373 18.5393 8.33333 18.7489 8.33333 19.0075C8.33333 19.2661 8.12373 19.4757 7.86517 19.4757H5.05618C4.79762 19.4757 4.58802 19.2661 4.58802 19.0075Z" fill="black"/>
<path fill-rule="evenodd" clip-rule="evenodd" d="M11.3296 13.3895C11.3296 13.131 11.5392 12.9213 11.7978 12.9213H14.6067C14.8653 12.9213 15.0749 13.131 15.0749 13.3895C15.0749 13.6481 14.8653 13.8577 14.6067 13.8577H11.7978C11.5392 13.8577 11.3296 13.6481 11.3296 13.3895Z" fill="black"/>
<path fill-rule="evenodd" clip-rule="evenodd" d="M11.3296 15.2622C11.3296 15.0036 11.5392 14.794 11.7978 14.794H14.6067C14.8653 14.794 15.0749 15.0036 15.0749 15.2622C15.0749 15.5207 14.8653 15.7303 14.6067 15.7303H11.7978C11.5392 15.7303 11.3296 15.5207 11.3296 15.2622Z" fill="black"/>
<path fill-rule="evenodd" clip-rule="evenodd" d="M11.3296 17.1348C11.3296 16.8763 11.5392 16.6667 11.7978 16.6667H14.6067C14.8653 16.6667 15.0749 16.8763 15.0749 17.1348C15.0749 17.3934 14.8653 17.603 14.6067 17.603H11.7978C11.5392 17.603 11.3296 17.3934 11.3296 17.1348Z" fill="black"/>
<path fill-rule="evenodd" clip-rule="evenodd" d="M11.3296 19.0075C11.3296 18.7489 11.5392 18.5393 11.7978 18.5393H14.6067C14.8653 18.5393 15.0749 18.7489 15.0749 19.0075C15.0749 19.2661 14.8653 19.4757 14.6067 19.4757H11.7978C11.5392 19.4757 11.3296 19.2661 11.3296 19.0075Z" fill="black"/>
</svg>
