<svg width="14" height="30" viewBox="0 0 14 30" fill="none" xmlns="http://www.w3.org/2000/svg">
<path fill-rule="evenodd" clip-rule="evenodd" d="M0 6.93548C0 4.48584 1.98985 2.5 4.44444 2.5H8.88889C11.3435 2.5 13.3333 4.48584 13.3333 6.93548V27.7823C13.3333 29.0071 12.3384 30 11.1111 30H2.22222C0.994927 30 0 29.0071 0 27.7823V6.93548ZM6.62223 12.4798V15.3823H3.93888V12.4798H2.80556V18.4677H3.93888V16.4385H6.62223V18.4677H7.75556V12.4798H6.62223ZM8.89353 17.9595H8.24536C8.23147 17.6361 8.38425 17.3173 8.62036 17.1094C8.84722 16.9107 9.15742 16.846 9.43981 16.846C9.78242 16.846 10.1065 16.9615 10.3148 17.2295C10.4908 17.4328 10.5787 17.7054 10.5787 17.9734C10.5787 18.4446 10.3611 18.671 9.96758 19.0129L9.23147 19.6459H10.5093V20.2373H8.23147V19.6459L9.64353 18.4539C9.85647 18.2737 9.93056 18.1074 9.93056 17.9641C9.93056 17.844 9.89353 17.7239 9.81481 17.6269C9.71297 17.5021 9.56944 17.4374 9.40278 17.4374C9.27314 17.4374 9.14814 17.4882 9.05556 17.576C8.95369 17.673 8.88889 17.8163 8.89353 17.9595Z" fill="black"/>
<path d="M4.16669 1.25C4.16669 0.559644 4.77297 0 5.52085 0H8.22919C8.97707 0 9.58335 0.559644 9.58335 1.25V2.5H4.16669V1.25Z" fill="black"/>
</svg>
