<svg width="31" height="25" viewBox="0 0 31 25" fill="none" xmlns="http://www.w3.org/2000/svg">
<path d="M3.40909 2.27273C3.40909 1.64513 3.91786 1.13636 4.54545 1.13636H6.81818V23.8636H4.54545C3.91786 23.8636 3.40909 23.3549 3.40909 22.7273V2.27273Z" fill="black"/>
<path d="M23.8636 1.13636H26.1364C26.764 1.13636 27.2727 1.64513 27.2727 2.27273V22.7273C27.2727 23.3549 26.764 23.8636 26.1364 23.8636H23.8636V1.13636Z" fill="black"/>
<path fill-rule="evenodd" clip-rule="evenodd" d="M10.7955 0C11.1093 1.43697e-08 11.3636 0.254384 11.3636 0.568182L11.3636 24.4318C11.3636 24.7456 11.1093 25 10.7955 25C10.4817 25 10.2273 24.7456 10.2273 24.4318L10.2273 0.568182C10.2273 0.254384 10.4817 -1.43697e-08 10.7955 0Z" fill="black"/>
<path fill-rule="evenodd" clip-rule="evenodd" d="M8.52273 0C8.83652 1.43697e-08 9.09091 0.254384 9.09091 0.568182L9.09091 24.4318C9.09091 24.7456 8.83652 25 8.52273 25C8.20893 25 7.95454 24.7456 7.95454 24.4318L7.95455 0.568182C7.95455 0.254384 8.20893 -1.43697e-08 8.52273 0Z" fill="black"/>
<path fill-rule="evenodd" clip-rule="evenodd" d="M13.0682 0C13.382 1.43697e-08 13.6364 0.254384 13.6364 0.568182L13.6364 24.4318C13.6364 24.7456 13.382 25 13.0682 25C12.7544 25 12.5 24.7456 12.5 24.4318L12.5 0.568182C12.5 0.254384 12.7544 -1.43697e-08 13.0682 0Z" fill="black"/>
<path fill-rule="evenodd" clip-rule="evenodd" d="M15.3409 0C15.6547 1.43697e-08 15.9091 0.254384 15.9091 0.568182L15.9091 24.4318C15.9091 24.7456 15.6547 25 15.3409 25C15.0271 25 14.7727 24.7456 14.7727 24.4318L14.7727 0.568182C14.7727 0.254384 15.0271 -1.43697e-08 15.3409 0Z" fill="black"/>
<path fill-rule="evenodd" clip-rule="evenodd" d="M17.6136 0C17.9274 1.43697e-08 18.1818 0.254384 18.1818 0.568182L18.1818 24.4318C18.1818 24.7456 17.9274 25 17.6136 25C17.2998 25 17.0455 24.7456 17.0455 24.4318V0.568182C17.0455 0.254384 17.2998 -1.43697e-08 17.6136 0Z" fill="black"/>
<path fill-rule="evenodd" clip-rule="evenodd" d="M19.8864 0C20.2002 1.43697e-08 20.4545 0.254384 20.4545 0.568182V24.4318C20.4545 24.7456 20.2002 25 19.8864 25C19.5726 25 19.3182 24.7456 19.3182 24.4318V0.568182C19.3182 0.254384 19.5726 -1.43697e-08 19.8864 0Z" fill="black"/>
<path fill-rule="evenodd" clip-rule="evenodd" d="M22.1591 0C22.4729 1.43697e-08 22.7273 0.254384 22.7273 0.568182V24.4318C22.7273 24.7456 22.4729 25 22.1591 25C21.8453 25 21.5909 24.7456 21.5909 24.4318V0.568182C21.5909 0.254384 21.8453 -1.43697e-08 22.1591 0Z" fill="black"/>
<path d="M0 3.40909H3.40909V5.68182H0V3.40909Z" fill="black"/>
<path d="M0 20.4545H3.40909V22.7273H0V20.4545Z" fill="black"/>
<path d="M27.2727 3.40909H30.6818V5.68182H27.2727V3.40909Z" fill="black"/>
<path d="M27.2727 20.4545H30.6818V22.7273H27.2727V20.4545Z" fill="black"/>
</svg>
