<svg width="23" height="30" viewBox="0 0 23 30" fill="none" xmlns="http://www.w3.org/2000/svg">
<path d="M11.1739 14.6008C11.2078 14.3281 11.6026 14.3281 11.6365 14.6008L13.519 29.7378C13.5363 29.877 13.4279 30 13.2877 30H9.52266C9.3825 30 9.27403 29.877 9.29135 29.7378L11.1739 14.6008Z" fill="black"/>
<path d="M10.9591 0.34222C11.0537 -0.158993 11.7909 -0.0898284 11.7909 0.420264V11.4068C11.7909 11.8177 11.2626 11.9842 11.0275 11.6475L9.3945 9.3086C9.32979 9.2159 9.30513 9.10099 9.32612 8.98986L10.9591 0.34222Z" fill="black"/>
<path d="M22.7443 19.132C23.1305 19.4647 22.702 20.0693 22.2609 19.8143L12.7584 14.321C12.403 14.1156 12.5231 13.5742 12.9319 13.5387L15.7713 13.2921C15.8839 13.2824 15.9956 13.3184 16.0812 13.3922L22.7443 19.132Z" fill="black"/>
<path d="M0.561055 19.9883C0.0802219 20.1569 -0.228542 19.4831 0.212649 19.228L9.71515 13.7348C10.0705 13.5293 10.4787 13.9042 10.305 14.2764L9.09856 16.8618C9.05075 16.9643 8.96369 17.0431 8.85707 17.0805L0.561055 19.9883Z" fill="black"/>
<path d="M12.3375 13.1668C12.3375 13.6824 11.9201 14.1004 11.4052 14.1004C10.8903 14.1004 10.4728 13.6824 10.4728 13.1668C10.4728 12.6512 10.8903 12.2333 11.4052 12.2333C11.9201 12.2333 12.3375 12.6512 12.3375 13.1668Z" fill="black"/>
</svg>
